<?xml version="1.0" encoding="UTF-8"?>
<svg enable-background="new 0 0 512.016 512.016" version="1.1" viewBox="0 0 512.02 512.02" xml:space="preserve" xmlns="http://www.w3.org/2000/svg">
<path d="m17.25 493.13c3.625-10.188 8.344-23.141 13.625-36.563 19.875-50.642 30.407-65.782 34.938-70.298 6.781-6.797 15.188-11.375 24.313-13.266l3.156-0.656 35.344-35.75 42.312 48.875-32.906 31.516-0.688 3.235c-1.875 9.125-6.469 17.531-13.25 24.344-4.531 4.5-19.656 15.062-70.282 34.923-13.436 5.265-26.406 10.015-36.562 13.64z" fill="#FFCE54"/>
<path d="m129.16 320.94-41.188 41.641c-10.719 2.219-21.126 7.609-29.688 16.172-21.875 21.874-58.282 131.61-58.282 131.61s109.72-36.391 131.63-58.282c8.531-8.547 13.938-18.969 16.156-29.703l37.812-36.22-56.436-65.218zm3.906 86.062-4.781 4.594-1.344 6.484c-1.469 7.079-5.062 13.642-10.375 18.954-1.75 1.75-13.219 11.578-66.563 32.517-5.094 1.984-10.094 3.906-14.906 5.703 1.812-4.812 3.719-9.812 5.719-14.876 20.938-53.36 30.75-64.829 32.531-66.579 5.313-5.328 11.876-8.906 18.938-10.359l6.312-1.312 4.531-4.578 24.969-25.281 28.156 32.516-23.187 22.217z" fill="#F6BB42"/><g fill="#DA4453"><path d="m199.91 423.4c5.969-2.797 11.938-5.767 17.875-8.876l121.5-86.781c4.969-4.641 9.875-9.391 14.719-14.203 2.781-2.812 5.563-5.625 8.282-8.469-0.469 55.359-25.845 115.92-74.032 164.13-16.062 16.047-33.469 29.562-51.625 40.484-0.125 0.078-0.845 0.5-0.845 0.5-4.031 2.188-9.188 1.578-12.594-1.828-1.125-1.141-1.938-2.469-2.438-3.875 0 0-0.375-1.109-0.469-1.594l-21.938-78.767c0.533-0.234 1.033-0.484 1.564-0.718z"/><path d="m207.53 150.27c-2.844 2.734-5.656 5.516-8.469 8.312-4.813 4.828-9.563 9.734-14.188 14.703-21.281 3-86.812 121.52-86.812 121.52-3.094 5.938-6.062 11.892-8.875 17.876-0.25 0.516-0.469 1.031-0.719 1.547l-78.783-21.939c-0.469-0.094-1.594-0.469-1.594-0.469-1.406-0.5-2.719-1.312-3.875-2.453-3.406-3.406-4-8.547-1.812-12.594 0 0 0.406-0.703 0.5-0.828 10.906-18.157 24.406-35.563 40.469-51.625 48.219-48.219 108.78-73.594 164.16-74.047z"/></g><path d="m197 151.05c-60.408 60.422-103.97 129.44-128.25 196.3-1.281 3.75-0.469 8.031 2.531 11.016l82.907 82.938c3 2.969 7.281 3.797 11.031 2.516 66.876-24.282 135.88-67.829 196.28-128.25 93.876-93.845 146.56-207.08 150.5-303.64 0.125-2.875-0.906-6.047-3.094-8.25-2.219-2.203-5.375-3.234-8.281-3.109-96.562 3.937-209.78 56.641-303.63 150.49z" fill="#E6E9ED"/><path d="m479.22 145.82-112.47-112.46c45.813-19.922 91.47-31.063 133.88-32.797 2.906-0.125 6.062 0.906 8.281 3.109 2.188 2.203 3.219 5.375 3.094 8.25-1.719 42.438-12.875 88.08-32.781 133.89z" fill="#DA4453"/>
<g style="transform: translate(290px, 90px) scale(5) rotate(45deg)"><path fill="#fff" stroke="#000" d="M34 16C34 6 26.837 0 18 0 9.164 0 2 6 2 16c0 5.574.002 10.388 6 12.64V33c0 1.657 1.343 3 3 3s3-1.343 3-3v-3.155c.324.027.659.05 1 .07V33c0 1.657 1.343 3 3 3s3-1.343 3-3v-3.085c.342-.021.676-.043 1-.07V33c0 1.657 1.344 3 3 3 1.657 0 3-1.343 3-3v-4.36c5.998-2.252 6-7.066 6-12.64z"/><circle fill="#000" cx="11" cy="14" r="5"/><circle fill="#000" cx="25" cy="14" r="5"/><path fill="#000" d="M19.903 23.062C19.651 22.449 18.9 22 18 22s-1.652.449-1.903 1.062c-.632.176-1.097.75-1.097 1.438 0 .828.671 1.5 1.5 1.5.655 0 1.206-.422 1.41-1.007.03.001.059.007.09.007s.06-.006.09-.007c.205.585.756 1.007 1.41 1.007.828 0 1.5-.672 1.5-1.5 0-.688-.466-1.261-1.097-1.438z"/></g></svg>